<?xml version="1.0" standalone="no"?>
<!DOCTYPE svg PUBLIC "-//W3C//DTD SVG 20010904//EN"
 "http://www.w3.org/TR/2001/REC-SVG-20010904/DTD/svg10.dtd">
<svg version="1.0" xmlns="http://www.w3.org/2000/svg"
 width="1280.000000pt" height="1280.000000pt" viewBox="0 0 1280.000000 1280.000000"
 preserveAspectRatio="xMidYMid meet">

<g transform="translate(0.000000,1280.000000) scale(0.100000,-0.100000)"
fill="#000000" stroke="none">
<path d="M6125 12794 c-27 -2 -120 -8 -205 -14 -1387 -96 -2723 -665 -3785
-1611 -145 -129 -458 -447 -576 -584 -838 -978 -1356 -2144 -1508 -3395 -38
-309 -46 -450 -46 -790 1 -341 10 -495 46 -790 171 -1391 791 -2677 1774
-3679 268 -273 443 -427 730 -644 892 -674 1952 -1102 3055 -1236 311 -37 452
-46 790 -46 538 0 991 52 1490 171 1577 376 2968 1355 3862 2719 597 910 934
1900 1030 3025 16 193 16 776 0 960 -52 591 -153 1079 -330 1600 -262 770
-703 1530 -1245 2144 -118 134 -405 422 -542 545 -1041 930 -2320 1483 -3720
1607 -160 14 -710 26 -820 18z m585 -514 c504 -30 923 -102 1373 -236 767
-229 1468 -607 2107 -1138 187 -156 563 -531 716 -716 673 -811 1100 -1716
1285 -2722 44 -243 89 -628 89 -769 l0 -39 -1834 0 -1833 0 -18 108 c-61 371
-221 728 -462 1027 -751 933 -2102 1104 -3065 388 -120 -89 -303 -264 -395
-378 -243 -300 -407 -665 -468 -1037 l-18 -108 -1833 0 -1834 0 0 39 c0 141
45 526 89 769 185 1007 613 1912 1285 2722 154 186 530 562 716 716 714 593
1511 999 2380 1212 554 137 1175 195 1720 162z m-23 -4191 c774 -125 1367
-778 1422 -1566 49 -698 -321 -1345 -947 -1659 -668 -333 -1494 -187 -2004
355 -280 297 -437 651 -467 1054 -60 798 441 1532 1206 1766 256 79 512 95
790 50z m-2481 -2064 c86 -480 302 -887 650 -1225 352 -342 785 -548 1284
-611 52 -7 169 -12 260 -12 261 0 453 31 705 114 507 167 936 515 1214 983
141 238 230 489 283 796 l13 75 1833 3 1832 2 0 -44 c0 -74 -19 -293 -40 -459
-145 -1139 -620 -2201 -1381 -3092 -131 -154 -480 -501 -630 -628 -871 -735
-1861 -1187 -2965 -1351 -305 -46 -512 -60 -864 -60 -591 0 -1072 67 -1625
224 -1243 355 -2340 1118 -3117 2170 -592 802 -972 1747 -1098 2737 -21 166
-40 385 -40 459 l0 44 1832 -2 1833 -3 21 -120z"/>
<path d="M6260 7530 c-184 -23 -395 -108 -535 -213 -61 -46 -182 -166 -229
-227 -97 -126 -165 -272 -206 -441 -33 -133 -33 -363 -1 -494 57 -232 155
-408 318 -566 167 -162 349 -258 588 -310 77 -16 321 -17 405 0 232 46 421
145 592 309 170 164 282 372 329 612 19 95 16 328 -5 425 -52 235 -157 426
-328 590 -167 161 -341 254 -562 300 -95 19 -276 27 -366 15z m368 -329 c541
-157 775 -797 461 -1265 -325 -487 -1053 -487 -1378 0 -326 487 -59 1150 514
1278 99 22 304 15 403 -13z"/>
</g>
</svg>
